<svg width="188" height="188" viewBox="0 0 188 188" fill="none" xmlns="http://www.w3.org/2000/svg">
<g id="mdi:instagram" clip-path="url(#clip0_214_916)">
<path id="Vector" d="M90.2723 29.19L138.291 46.6673C155.805 53.0419 164.857 72.4536 158.482 89.9678L141.005 137.986C137.94 146.406 131.657 153.263 123.536 157.05C115.416 160.836 106.124 161.242 97.7042 158.177L49.686 140.7C32.1717 134.326 23.1199 114.914 29.4946 97.3997L46.9718 49.3814C50.0363 40.9619 56.3199 34.1045 64.4403 30.3179C72.5607 26.5313 81.8528 26.1256 90.2723 29.19ZM85.9939 37.3878C80.1621 35.2652 73.7259 35.5462 68.1013 38.169C62.4767 40.7918 58.1244 45.5415 56.0018 51.3733L37.6923 101.678C33.2685 113.832 39.5236 127.246 51.6778 131.67L101.983 149.98C107.815 152.102 114.251 151.821 119.875 149.199C125.5 146.576 129.852 141.826 131.975 135.994L150.284 85.6893C154.708 73.5351 148.453 60.121 136.299 55.6972L85.9939 37.3878ZM137.011 68.8595C138.532 69.4132 139.771 70.5486 140.455 72.0159C141.139 73.4831 141.213 75.162 140.659 76.6833C140.105 78.2046 138.97 79.4437 137.503 80.1278C136.035 80.812 134.357 80.8853 132.835 80.3316C131.314 79.7779 130.075 78.6426 129.391 77.1753C128.707 75.7081 128.633 74.0291 129.187 72.5078C129.741 70.9865 130.876 69.7475 132.343 69.0633C133.81 68.3791 135.489 68.3058 137.011 68.8595ZM103.878 66.511C111.085 69.134 116.955 74.5124 120.196 81.463C123.437 88.4137 123.784 96.3672 121.161 103.574C118.538 110.78 113.16 116.65 106.209 119.891C99.2584 123.132 91.3049 123.48 84.0982 120.857C76.8915 118.234 71.022 112.855 67.7809 105.904C64.5398 98.9538 64.1925 91.0003 66.8155 83.7937C69.4385 76.587 74.8169 70.7175 81.7676 67.4763C88.7182 64.2352 96.6717 63.888 103.878 66.511ZM100.743 75.1248C95.8211 73.3333 90.3888 73.5705 85.6416 75.7842C80.8943 77.9979 77.2209 82.0067 75.4294 86.9288C73.6379 91.851 73.875 97.2832 76.0887 102.03C78.3024 106.778 82.3113 110.451 87.2334 112.243C92.1555 114.034 97.5877 113.797 102.335 111.583C107.082 109.37 110.756 105.361 112.547 100.439C114.339 95.5165 114.102 90.0843 111.888 85.337C109.674 80.5898 105.665 76.9163 100.743 75.1248Z" fill="black" stroke="white" stroke-width="3"/>
</g>
<defs>
<clipPath id="clip0_214_916">
<rect width="146" height="146" fill="white" transform="translate(50.3584 0.119141) rotate(20)"/>
</clipPath>
</defs>
</svg>
