<svg width="170" height="171" viewBox="0 0 170 171" fill="none" xmlns="http://www.w3.org/2000/svg">
<g id="jam:linkedin" clip-path="url(#clip0_214_960)">
<path id="Vector" d="M88.5456 97.9428L81.214 139.522L58.5344 135.523L58.8116 133.993C59.1598 132.07 59.6582 129.315 60.2591 125.986C61.4611 119.328 63.0734 110.375 64.7147 101.193C67.6647 84.6917 70.7224 67.3766 71.6465 61.3875L94.2873 65.3796L92.6999 74.3826L90.8655 76.3029L93.6257 76.7896L93.7934 76.8192L95.2706 77.0796L95.4977 75.7915C97.5691 73.6063 100.261 71.1632 103.915 69.4799C107.725 67.7249 112.67 66.7555 119.185 67.9042C127.288 69.333 133.775 73.1985 137.769 79.4249C141.771 85.665 143.403 94.4859 141.361 106.07L133.826 148.799L111.152 144.801L118.164 105.031C119.102 99.7144 118.987 94.844 117.263 91.0193C115.492 87.0891 112.112 84.4649 107.039 83.5705C99.1599 82.1812 93.5721 86.7027 90.705 91.3071C89.5682 93.1053 88.954 95.6264 88.5456 97.9428ZM34.7461 28.7726C35.3449 25.3767 37.1432 22.6686 39.7319 20.9688C42.3241 19.2668 45.8064 18.5141 49.8607 19.229C53.9173 19.9443 56.8431 21.8239 58.6314 24.2878C60.4192 26.7509 61.1534 29.9114 60.6233 33.3511C60.0352 36.6642 58.278 39.3785 55.7093 41.1C53.138 42.8233 49.6544 43.6163 45.5163 42.8866L45.3485 42.857C37.5321 41.4788 33.5915 35.3207 34.7461 28.7726ZM54.4777 58.3601L41.4044 132.503L18.7297 128.505L31.803 54.362L54.4777 58.3601Z" fill="black" stroke="#FCF5ED" stroke-width="3"/>
</g>
<defs>
<clipPath id="clip0_214_960">
<rect width="146" height="146" fill="white" transform="translate(25.7754 0.944336) rotate(10)"/>
</clipPath>
</defs>
</svg>
