<svg width="32" height="32" viewBox="0 0 32 32" fill="none" xmlns="http://www.w3.org/2000/svg">
<g id="mingcute:youtube-fill">
<g clip-path="url(#clip0_420_2779)">
<rect width="32" height="32" rx="3" fill="white"/>
<g id="Group">
<path id="Vector" fill-rule="evenodd" clip-rule="evenodd" d="M15.9999 7.19922C16.9119 7.19922 17.8474 7.22269 18.7541 7.26109L19.825 7.31229L20.8501 7.37309L21.8101 7.43815L22.6869 7.50642C23.6384 7.57925 24.5337 7.9853 25.2154 8.65313C25.8971 9.32096 26.3214 10.2078 26.4138 11.1576L26.4565 11.611L26.5365 12.5816C26.6111 13.5875 26.6666 14.684 26.6666 15.7326C26.6666 16.7811 26.6111 17.8776 26.5365 18.8835L26.4565 19.8542C26.4426 20.0099 26.4287 20.1603 26.4138 20.3075C26.3214 21.2575 25.8969 22.1444 25.215 22.8123C24.5331 23.4802 23.6375 23.8861 22.6858 23.9587L21.8111 24.0259L20.8511 24.092L19.825 24.1528L18.7541 24.204C17.8365 24.2439 16.9183 24.2645 15.9999 24.2659C15.0815 24.2645 14.1633 24.2439 13.2458 24.204L12.1749 24.1528L11.1498 24.092L10.1898 24.0259L9.31299 23.9587C8.36147 23.8859 7.46611 23.4798 6.78442 22.812C6.10274 22.1441 5.6784 21.2573 5.58605 20.3075L5.54339 19.8542L5.46339 18.8835C5.38183 17.8351 5.33842 16.7841 5.33325 15.7326C5.33325 14.684 5.38872 13.5875 5.46339 12.5816L5.54339 11.611C5.55725 11.4552 5.57112 11.3048 5.58605 11.1576C5.67836 10.208 6.10255 9.32126 6.78402 8.65345C7.46548 7.98564 8.36059 7.57949 9.31192 7.50642L10.1877 7.43815L11.1477 7.37309L12.1738 7.31229L13.2447 7.26109C14.1626 7.22123 15.0812 7.2006 15.9999 7.19922ZM13.8666 13.1459V18.3192C13.8666 18.812 14.3999 19.1192 14.8266 18.8739L19.3066 16.2872C19.4041 16.2311 19.485 16.1503 19.5413 16.0529C19.5977 15.9555 19.6273 15.845 19.6273 15.7326C19.6273 15.6201 19.5977 15.5096 19.5413 15.4122C19.485 15.3148 19.4041 15.234 19.3066 15.1779L14.8266 12.5923C14.7293 12.5361 14.6189 12.5065 14.5065 12.5065C14.3941 12.5066 14.2837 12.5362 14.1864 12.5924C14.0891 12.6486 14.0083 12.7295 13.9522 12.8268C13.896 12.9242 13.8665 13.0346 13.8666 13.147V13.1459Z" fill="#D97213"/>
</g>
</g>
</g>
<defs>
<clipPath id="clip0_420_2779">
<rect width="32" height="32" rx="3" fill="white"/>
</clipPath>
</defs>
</svg>
