<svg width="147" height="147" viewBox="0 0 147 147" fill="none" xmlns="http://www.w3.org/2000/svg">
<g id="ic:baseline-tiktok">
<path id="Vector" d="M119.531 46.86V62.6649C110.989 62.3835 102.709 59.5737 95.7478 54.5749L93.3729 52.8693V55.7933V94.0574C93.3729 112.393 78.5302 127.232 60.2587 127.232C43.1972 127.232 27.1445 113.422 27.1445 94.0574C27.1445 74.5887 43.966 59.2341 63.5037 61.0858V77.0505C52.8296 74.9973 43.0029 83.2637 43.0029 94.0574C43.0029 103.653 50.8598 111.374 60.3186 111.374L119.531 46.86ZM119.531 46.86C119.363 46.8501 119.184 46.8377 118.993 46.8221C117.717 46.7181 115.936 46.475 113.886 45.9183C109.785 44.805 104.569 42.4263 100.19 37.3728C96.1251 32.7291 93.7475 26.8663 93.4136 20.7324H77.5754L119.531 46.86Z" fill="black" stroke="white" stroke-width="3"/>
</g>
</svg>
