<svg width="207" height="206" viewBox="0 0 207 206" fill="none" xmlns="http://www.w3.org/2000/svg">
<g id="iconoir:twitter" clip-path="url(#clip0_728_219)">
<path id="Vector" d="M190.205 104.147C190.205 104.147 176.14 101.811 169.59 98.9987C169.491 93.4166 167.68 87.9995 164.402 83.48C161.125 78.9606 156.538 75.5569 151.262 73.7292C145.987 71.9015 140.278 71.738 134.907 73.2609C129.535 74.7838 124.761 77.9196 121.23 82.2441L117.32 86.9042C108.952 80.2447 102.362 71.6192 98.1345 61.7958C93.9075 51.9724 92.1755 41.2561 93.0928 30.6013C93.0928 30.6013 39.2597 56.901 65.5595 110.734C50.4957 109.196 36.3218 102.869 25.1182 92.6823C47.5077 151.175 118.32 170.888 163.289 117.297C164.375 115.996 165.333 114.602 166.161 113.116C174.848 112.417 190.205 104.147 190.205 104.147Z" stroke="black" stroke-width="5" stroke-linecap="round" stroke-linejoin="round"/>
</g>
<defs>
<clipPath id="clip0_728_219">
<rect width="146" height="146" fill="white" transform="translate(94.7927 0.183594) rotate(40)"/>
</clipPath>
</defs>
</svg>
