<svg width="200" height="201" viewBox="0 0 200 201" fill="none" xmlns="http://www.w3.org/2000/svg">
<g id="ic:outline-whatsapp" clip-path="url(#clip0_728_216)">
<path id="Vector" d="M158.011 84.7105L158.012 84.7152C162.107 99.9981 159.997 115.976 152.068 129.708C135.737 157.995 99.3692 167.74 71.0824 151.408C62.4831 146.443 55.2942 139.392 50.1444 130.961L49.9374 130.622L49.5544 130.517L19.3679 122.275L41.1488 100.673L41.4434 100.381L41.4446 99.9659C41.4758 89.6204 44.1779 79.4366 49.4127 70.3697C65.7441 42.0829 102.112 32.3382 130.399 48.6696L130.402 48.6712C137.165 52.546 143.089 57.7282 147.829 63.9156C152.569 70.103 156.03 77.172 158.011 84.7105ZM56.1891 125.075L56.1925 125.081C60.6892 133.05 67.2392 139.698 75.1924 144.29C99.5857 158.373 130.916 150.028 144.897 125.567C148.279 119.762 150.474 113.342 151.355 106.682C152.237 100.021 151.788 93.2508 150.033 86.7647C146.544 73.5748 138.086 62.5293 126.266 55.7052C101.87 41.6199 70.5114 50.0224 56.4261 74.4188L56.4258 74.4194C51.6246 82.7467 49.2622 92.2565 49.6083 101.863L49.6083 101.863L49.6089 101.876L49.6976 103.672L36.3953 116.849L35.1649 118.068L36.8356 118.524L55.3606 123.583L56.1891 125.075ZM88.6186 89.8464L88.6184 89.8614L88.6186 89.8764C88.6487 91.663 88.7658 97.5501 90.7072 103.431C92.8131 109.83 95.694 113.684 97.0425 115.488C97.2601 115.779 97.4378 116.017 97.5659 116.204C98.0649 116.983 98.6399 117.626 99.3917 117.951C100.187 118.294 100.991 118.206 101.763 117.92C102.999 117.498 107.195 115.973 108.913 115.145C109.549 114.854 109.825 114.919 109.99 114.991C110.251 115.105 110.531 115.371 111.027 115.944C111.701 116.822 114.401 120.821 116.124 123.374C116.703 124.231 117.171 124.925 117.416 125.283C117.63 125.596 117.815 125.857 117.977 126.086C118.207 126.411 118.391 126.671 118.55 126.926C118.8 127.327 118.859 127.525 118.867 127.658C118.866 127.651 118.865 127.654 118.862 127.67C118.851 127.713 118.817 127.851 118.7 128.105C118.55 128.431 118.31 128.852 117.971 129.339C117.295 130.312 116.265 131.497 114.896 132.65L114.89 132.655L114.884 132.66C113.739 133.654 111.617 134.199 109.27 134.311C106.954 134.422 104.718 134.098 103.525 133.623C101.142 132.658 98.3644 131.244 95.9793 128.609L95.9743 128.603L95.9692 128.598C94.4223 126.939 92.4838 124.782 90.1981 121.661L90.1934 121.654C81.0018 109.306 79.7007 92.4641 79.4995 89.8588C79.4902 89.7385 79.4832 89.6485 79.478 89.5907L79.4766 89.5764L79.4749 89.5621L79.4726 89.5428C79.3979 88.9234 79.1031 86.4781 79.2674 83.413C79.4343 80.299 80.071 76.6413 81.8138 73.6227C85.0414 68.0323 89.4071 66.6403 91.5859 65.9456C91.7676 65.8877 91.9342 65.8346 92.0836 65.7843C93.7421 65.2682 95.0021 65.6735 95.6948 66.0735L98.1957 67.5174C98.3682 67.6318 98.5053 67.7132 98.6189 67.7807C98.8701 67.9299 99.0064 68.0108 99.1563 68.2302C99.3272 68.4804 99.561 69.0576 99.3751 70.5007C98.9117 73.718 97.8271 81.7138 97.775 82.5816C97.7356 83.2376 97.5863 83.735 97.0088 84.1403C96.9377 84.1874 96.869 84.2329 96.8025 84.2769C96.0084 84.8031 95.5215 85.1258 94.6743 85.4241C94.2929 85.5584 93.9072 85.702 93.5304 85.8422C92.7814 86.121 92.0674 86.3868 91.4904 86.5414L91.4728 86.5461C90.9649 86.6821 90.2266 86.8799 89.6414 87.3749C88.9764 87.9376 88.6329 88.7566 88.6186 89.8464Z" fill="black" stroke="#FCF5ED" stroke-width="2"/>
</g>
<defs>
<clipPath id="clip0_728_216">
<rect width="146" height="146" fill="white" transform="translate(73.5514 0.64502) rotate(30)"/>
</clipPath>
</defs>
</svg>
