<svg width="48" height="48" viewBox="0 0 48 48" fill="none" xmlns="http://www.w3.org/2000/svg">
<g id="phone-call">
<rect width="48" height="48" rx="4" fill="#d97213"/>
<path id="Vector" d="M27.1996 16.5959C28.3219 16.8149 29.3532 17.3637 30.1617 18.1722C30.9703 18.9807 31.5191 20.0121 31.7381 21.1344M27.1996 12C29.5312 12.259 31.7054 13.3031 33.3653 14.9609C35.0252 16.6187 36.072 18.7916 36.334 21.1229M35.185 30.2917V33.7387C35.1863 34.0587 35.1208 34.3754 34.9926 34.6686C34.8644 34.9618 34.6764 35.225 34.4406 35.4413C34.2048 35.6576 33.9264 35.8223 33.6233 35.9248C33.3201 36.0274 32.9989 36.0654 32.6802 36.0366C29.1446 35.6525 25.7484 34.4443 22.7645 32.5093C19.9884 30.7452 17.6347 28.3915 15.8707 25.6154C13.9289 22.6179 12.7205 19.2052 12.3433 15.6538C12.3146 15.336 12.3524 15.0158 12.4542 14.7135C12.556 14.4111 12.7197 14.1333 12.9348 13.8977C13.1498 13.6621 13.4116 13.4738 13.7035 13.3449C13.9953 13.216 14.3108 13.1493 14.6298 13.149H18.0767C18.6343 13.1435 19.1749 13.3409 19.5977 13.7045C20.0205 14.0681 20.2966 14.5731 20.3747 15.1252C20.5202 16.2283 20.79 17.3114 21.179 18.3539C21.3335 18.7651 21.367 19.212 21.2754 19.6417C21.1837 20.0714 20.9708 20.4658 20.6619 20.7782L19.2027 22.2374C20.8383 25.1139 23.2201 27.4956 26.0966 29.1313L27.5558 27.6721C27.8682 27.3632 28.2626 27.1503 28.6923 27.0586C29.1219 26.967 29.5689 27.0004 29.9801 27.155C31.0226 27.544 32.1057 27.8138 33.2088 27.9593C33.7669 28.0381 34.2766 28.3192 34.641 28.7492C35.0054 29.1793 35.199 29.7283 35.185 30.2917Z" stroke="white" stroke-width="2" stroke-linecap="round" stroke-linejoin="round"/>
</g>
</svg>
