<svg width="48" height="48" viewBox="0 0 48 48" fill="none" xmlns="http://www.w3.org/2000/svg">
<g id="mdi:email-edit-outline">
<rect width="48" height="48" rx="4" fill="#d97213"/>
<path id="Vector" d="M32.76 25.1733L24.6667 33.2533V36H27.4133L35.4933 27.9067M37.6 24.7733L35.8933 23.0667C35.8292 22.9958 35.751 22.9391 35.6638 22.9001C35.5766 22.8611 35.4822 22.8406 35.3867 22.84C35.1867 22.8533 35 22.92 34.8667 23.0667L33.5333 24.4L36.2667 27.0667L37.6 25.7333C37.8533 25.4667 37.8533 25.04 37.6 24.7733ZM22 30.6667H12.6667V17.3333L23.3333 24L34 17.3333V20H36.6667V14.6667C36.6667 13.2 35.4667 12 34 12H12.6667C11.2 12 10 13.2 10 14.6667V30.6667C10 32.1333 11.2 33.3333 12.6667 33.3333H22V30.6667ZM34 14.6667L23.3333 21.3333L12.6667 14.6667H34Z" fill="white"/>
</g>
</svg>
