<svg width="68" height="68" viewBox="0 0 68 68" fill="none" xmlns="http://www.w3.org/2000/svg">
<g id="basil:linkedin-solid" filter="url(#filter0_d_333_3367)">
<rect x="6" y="6" width="48" height="48" rx="3" fill="white"/>
<path id="Vector" d="M20.6494 18C19.9467 18 19.2728 18.2791 18.776 18.776C18.2791 19.2728 18 19.9467 18 20.6494C18 21.352 18.2791 22.0259 18.776 22.5227C19.2728 23.0196 19.9467 23.2987 20.6494 23.2987C21.352 23.2987 22.0259 23.0196 22.5227 22.5227C23.0196 22.0259 23.2987 21.352 23.2987 20.6494C23.2987 19.9467 23.0196 19.2728 22.5227 18.776C22.0259 18.2791 21.352 18 20.6494 18ZM18.1558 25.4805C18.1145 25.4805 18.0749 25.4969 18.0456 25.5262C18.0164 25.5554 18 25.595 18 25.6364V41.8442C18 41.9302 18.0698 42 18.1558 42H23.1429C23.1842 42 23.2238 41.9836 23.2531 41.9544C23.2823 41.9251 23.2987 41.8855 23.2987 41.8442V25.6364C23.2987 25.595 23.2823 25.5554 23.2531 25.5262C23.2238 25.4969 23.1842 25.4805 23.1429 25.4805H18.1558ZM26.2597 25.4805C26.2184 25.4805 26.1788 25.4969 26.1495 25.5262C26.1203 25.5554 26.1039 25.595 26.1039 25.6364V41.8442C26.1039 41.9302 26.1737 42 26.2597 42H31.2468C31.2881 42 31.3277 41.9836 31.357 41.9544C31.3862 41.9251 31.4026 41.8855 31.4026 41.8442V33.1169C31.4026 32.4969 31.6489 31.9023 32.0873 31.4639C32.5257 31.0255 33.1203 30.7792 33.7403 30.7792C34.3602 30.7792 34.9548 31.0255 35.3932 31.4639C35.8316 31.9023 36.0779 32.4969 36.0779 33.1169V41.8442C36.0779 41.9302 36.1477 42 36.2338 42H41.2208C41.2621 42 41.3018 41.9836 41.331 41.9544C41.3602 41.9251 41.3766 41.8855 41.3766 41.8442V31.0971C41.3766 28.0713 38.746 25.7049 35.7351 25.978C34.8035 26.0628 33.8909 26.2933 33.0309 26.6612L31.4026 27.3594V25.6364C31.4026 25.595 31.3862 25.5554 31.357 25.5262C31.3277 25.4969 31.2881 25.4805 31.2468 25.4805H26.2597Z" fill="#d97213"/>
</g>
<defs>
<filter id="filter0_d_333_3367" x="0" y="0" width="68" height="68" filterUnits="userSpaceOnUse" color-interpolation-filters="sRGB">
<feFlood flood-opacity="0" result="BackgroundImageFix"/>
<feColorMatrix in="SourceAlpha" type="matrix" values="0 0 0 0 0 0 0 0 0 0 0 0 0 0 0 0 0 0 127 0" result="hardAlpha"/>
<feOffset dx="4" dy="4"/>
<feGaussianBlur stdDeviation="5"/>
<feComposite in2="hardAlpha" operator="out"/>
<feColorMatrix type="matrix" values="0 0 0 0 0 0 0 0 0 0 0 0 0 0 0 0 0 0 0.1 0"/>
<feBlend mode="normal" in2="BackgroundImageFix" result="effect1_dropShadow_333_3367"/>
<feBlend mode="normal" in="SourceGraphic" in2="effect1_dropShadow_333_3367" result="shape"/>
</filter>
</defs>
</svg>
