<svg width="48" height="48" viewBox="0 0 48 48" fill="none" xmlns="http://www.w3.org/2000/svg">
<g id="ep:location">
<rect width="48" height="48" rx="4" fill="#d97213"/>
<path id="Vector" d="M31.8478 21.2143C31.8478 18.9978 30.9858 16.8722 29.4514 15.3049C27.917 13.7376 25.836 12.8571 23.666 12.8571C21.4961 12.8571 19.415 13.7376 17.8806 15.3049C16.3462 16.8722 15.4842 18.9978 15.4842 21.2143C15.4842 24.6426 18.1697 29.1109 23.666 34.4631C29.1624 29.1109 31.8478 24.6426 31.8478 21.2143ZM23.666 37C16.9987 30.8101 13.666 25.547 13.666 21.2143C13.666 18.5053 14.7196 15.9072 16.5949 13.9917C18.4703 12.0761 21.0139 11 23.666 11C26.3182 11 28.8617 12.0761 30.7371 13.9917C32.6124 15.9072 33.666 18.5053 33.666 21.2143C33.666 25.547 30.3333 30.8101 23.666 37Z" fill="white"/>
<path id="Vector_2" d="M23.666 24C24.4617 24 25.2247 23.6839 25.7873 23.1213C26.3499 22.5587 26.666 21.7956 26.666 21C26.666 20.2044 26.3499 19.4413 25.7873 18.8787C25.2247 18.3161 24.4617 18 23.666 18C22.8704 18 22.1073 18.3161 21.5447 18.8787C20.9821 19.4413 20.666 20.2044 20.666 21C20.666 21.7956 20.9821 22.5587 21.5447 23.1213C22.1073 23.6839 22.8704 24 23.666 24ZM23.666 26C22.3399 26 21.0682 25.4732 20.1305 24.5355C19.1928 23.5979 18.666 22.3261 18.666 21C18.666 19.6739 19.1928 18.4021 20.1305 17.4645C21.0682 16.5268 22.3399 16 23.666 16C24.9921 16 26.2639 16.5268 27.2015 17.4645C28.1392 18.4021 28.666 19.6739 28.666 21C28.666 22.3261 28.1392 23.5979 27.2015 24.5355C26.2639 25.4732 24.9921 26 23.666 26Z" fill="white"/>
</g>
</svg>
