<svg width="14" height="14" viewBox="0 0 14 14" fill="none" xmlns="http://www.w3.org/2000/svg">
<g id="mdi:location">
<path id="Vector" d="M6.99996 6.70817C6.61319 6.70817 6.24225 6.55452 5.96876 6.28103C5.69527 6.00754 5.54163 5.63661 5.54163 5.24984C5.54163 4.86306 5.69527 4.49213 5.96876 4.21864C6.24225 3.94515 6.61319 3.7915 6.99996 3.7915C7.38673 3.7915 7.75767 3.94515 8.03116 4.21864C8.30465 4.49213 8.45829 4.86306 8.45829 5.24984C8.45829 5.44135 8.42057 5.63098 8.34728 5.80792C8.274 5.98485 8.16658 6.14562 8.03116 6.28103C7.89574 6.41645 7.73497 6.52387 7.55804 6.59716C7.38111 6.67045 7.19147 6.70817 6.99996 6.70817ZM6.99996 1.1665C5.91699 1.1665 4.87838 1.59671 4.11261 2.36248C3.34683 3.12826 2.91663 4.16687 2.91663 5.24984C2.91663 8.31234 6.99996 12.8332 6.99996 12.8332C6.99996 12.8332 11.0833 8.31234 11.0833 5.24984C11.0833 4.16687 10.6531 3.12826 9.88731 2.36248C9.12154 1.59671 8.08293 1.1665 6.99996 1.1665Z" fill="#CACACA"/>
</g>
</svg>
