<svg width="68" height="68" viewBox="0 0 68 68" fill="none" xmlns="http://www.w3.org/2000/svg">
<g id="akar-icons:tiktok-fill" filter="url(#filter0_d_333_3369)">
<rect x="6" y="6" width="48" height="48" rx="3" fill="white"/>
<path id="Vector" d="M38.2337 22.8022C38.0537 22.7091 37.8785 22.607 37.7087 22.4964C37.2153 22.1702 36.7629 21.7859 36.3612 21.3517C35.3551 20.2009 34.9795 19.0337 34.842 18.2171H34.8467C34.7318 17.5381 34.7792 17.0996 34.7875 17.0996H30.2072V34.8082C30.2072 35.0452 30.2072 35.281 30.1977 35.5133C30.1977 35.5417 30.1941 35.5678 30.1929 35.5998C30.1929 35.6117 30.1929 35.6259 30.1894 35.6389V35.6496C30.1413 36.2848 29.9378 36.8985 29.5968 37.4366C29.2559 37.9747 28.7879 38.4207 28.234 38.7355C27.6562 39.0642 27.0027 39.2366 26.3379 39.2356C24.2048 39.2356 22.4746 37.4959 22.4746 35.3474C22.4746 33.1977 24.2048 31.458 26.3379 31.458C26.742 31.458 27.1437 31.522 27.5277 31.6476L27.5336 26.9831C26.3675 26.8327 25.1829 26.9256 24.0545 27.256C22.9262 27.5865 21.8785 28.1472 20.9778 28.9029C20.1884 29.5886 19.5247 30.4067 19.0165 31.3205C18.8233 31.6535 18.0933 32.9938 18.0056 35.1672C17.9499 36.3997 18.3209 37.6796 18.4974 38.207V38.2188C18.6077 38.5293 19.039 39.5911 19.7406 40.4859C20.3063 41.204 20.9748 41.8349 21.7244 42.3583V42.3464L21.7351 42.3583C23.9512 43.8633 26.4102 43.765 26.4102 43.765C26.8356 43.7472 28.2613 43.765 29.8801 42.9982C31.6755 42.1473 32.697 40.8805 32.697 40.8805C33.3501 40.1234 33.8695 39.2605 34.2329 38.329C34.6476 37.2388 34.7851 35.9328 34.7851 35.4114V26.0149C34.8408 26.0481 35.5815 26.5375 35.5815 26.5375C35.5815 26.5375 36.648 27.2213 38.3107 27.6657C39.5029 27.9821 41.111 28.0497 41.111 28.0497V23.5026C40.5481 23.5642 39.4045 23.3864 38.2325 22.8034" fill="#d97213"/>
</g>
<defs>
<filter id="filter0_d_333_3369" x="0" y="0" width="68" height="68" filterUnits="userSpaceOnUse" color-interpolation-filters="sRGB">
<feFlood flood-opacity="0" result="BackgroundImageFix"/>
<feColorMatrix in="SourceAlpha" type="matrix" values="0 0 0 0 0 0 0 0 0 0 0 0 0 0 0 0 0 0 127 0" result="hardAlpha"/>
<feOffset dx="4" dy="4"/>
<feGaussianBlur stdDeviation="5"/>
<feComposite in2="hardAlpha" operator="out"/>
<feColorMatrix type="matrix" values="0 0 0 0 0 0 0 0 0 0 0 0 0 0 0 0 0 0 0.1 0"/>
<feBlend mode="normal" in2="BackgroundImageFix" result="effect1_dropShadow_333_3369"/>
<feBlend mode="normal" in="SourceGraphic" in2="effect1_dropShadow_333_3369" result="shape"/>
</filter>
</defs>
</svg>
