<svg width="68" height="68" viewBox="0 0 68 68" fill="none" xmlns="http://www.w3.org/2000/svg">
<g id="uil:twitter" filter="url(#filter0_d_333_3365)">
<rect x="6" y="6" width="48" height="48" rx="3" fill="white"/>
<path id="Vector" d="M42 22.3407C41.098 22.732 40.1441 22.9907 39.168 23.1087C40.1978 22.4935 40.9695 21.5257 41.34 20.3847C40.3723 20.9608 39.3129 21.3667 38.208 21.5847C37.4695 20.7838 36.486 20.2507 35.4118 20.0689C34.3376 19.8872 33.2335 20.0672 32.2725 20.5805C31.3116 21.0939 30.5483 21.9118 30.1023 22.9057C29.6563 23.8997 29.5528 25.0136 29.808 26.0727C27.8513 25.9738 25.9373 25.4643 24.1904 24.5774C22.4434 23.6904 20.9026 22.446 19.668 20.9247C19.235 21.6809 19.0074 22.5373 19.008 23.4087C19.0065 24.218 19.2051 25.0151 19.5861 25.729C19.9672 26.4429 20.5188 27.0516 21.192 27.5007C20.4096 27.4794 19.6439 27.2695 18.96 26.8887V26.9487C18.9659 28.0826 19.3632 29.1796 20.0848 30.0543C20.8064 30.9289 21.8079 31.5275 22.92 31.7487C22.4919 31.879 22.0475 31.9477 21.6 31.9527C21.2903 31.9491 20.9813 31.921 20.676 31.8687C20.9927 32.8441 21.6055 33.6965 22.4293 34.3073C23.253 34.9181 24.2467 35.257 25.272 35.2767C23.5406 36.639 21.4031 37.3825 19.2 37.3887C18.7989 37.39 18.3981 37.366 18 37.3167C20.2493 38.769 22.8706 39.54 25.548 39.5367C27.3956 39.5559 29.2286 39.2067 30.9397 38.5096C32.6509 37.8125 34.206 36.7814 35.5142 35.4765C36.8225 34.1716 37.8576 32.6192 38.5591 30.9098C39.2606 29.2004 39.6144 27.3684 39.6 25.5207V24.8847C40.5416 24.1825 41.3538 23.3216 42 22.3407Z" fill="#d97213"/>
</g>
<defs>
<filter id="filter0_d_333_3365" x="0" y="0" width="68" height="68" filterUnits="userSpaceOnUse" color-interpolation-filters="sRGB">
<feFlood flood-opacity="0" result="BackgroundImageFix"/>
<feColorMatrix in="SourceAlpha" type="matrix" values="0 0 0 0 0 0 0 0 0 0 0 0 0 0 0 0 0 0 127 0" result="hardAlpha"/>
<feOffset dx="4" dy="4"/>
<feGaussianBlur stdDeviation="5"/>
<feComposite in2="hardAlpha" operator="out"/>
<feColorMatrix type="matrix" values="0 0 0 0 0 0 0 0 0 0 0 0 0 0 0 0 0 0 0.1 0"/>
<feBlend mode="normal" in2="BackgroundImageFix" result="effect1_dropShadow_333_3365"/>
<feBlend mode="normal" in="SourceGraphic" in2="effect1_dropShadow_333_3365" result="shape"/>
</filter>
</defs>
</svg>
