<svg width="68" height="68" viewBox="0 0 68 68" fill="none" xmlns="http://www.w3.org/2000/svg">
<g id="mingcute:youtube-fill" filter="url(#filter0_d_333_3371)">
<g clip-path="url(#clip0_333_3371)">
<rect x="6" y="6" width="48" height="48" rx="3" fill="white"/>
<g id="Group">
<path id="Vector" fill-rule="evenodd" clip-rule="evenodd" d="M30 18.0996C31.2825 18.0996 32.598 18.1326 33.873 18.1866L35.379 18.2586L36.8205 18.3441L38.1705 18.4356L39.4035 18.5316C40.7416 18.634 42.0007 19.205 42.9593 20.1442C43.9179 21.0833 44.5146 22.3304 44.6445 23.6661L44.7045 24.3036L44.817 25.6686C44.922 27.0831 45 28.6251 45 30.0996C45 31.5741 44.922 33.1161 44.817 34.5306L44.7045 35.8956C44.685 36.1146 44.6655 36.3261 44.6445 36.5331C44.5146 37.869 43.9176 39.1163 42.9587 40.0555C41.9998 40.9947 40.7403 41.5655 39.402 41.6676L38.172 41.7621L36.822 41.8551L35.379 41.9406L33.873 42.0126C32.5828 42.0687 31.2915 42.0977 30 42.0996C28.7085 42.0977 27.4173 42.0687 26.127 42.0126L24.621 41.9406L23.1795 41.8551L21.8295 41.7621L20.5965 41.6676C19.2584 41.5652 17.9993 40.9942 17.0407 40.055C16.0821 39.1159 15.4854 37.8688 15.3555 36.5331L15.2955 35.8956L15.183 34.5306C15.0683 33.0563 15.0073 31.5783 15 30.0996C15 28.6251 15.078 27.0831 15.183 25.6686L15.2955 24.3036C15.315 24.0846 15.3345 23.8731 15.3555 23.6661C15.4853 22.3307 16.0818 21.0837 17.0401 20.1446C17.9985 19.2055 19.2572 18.6344 20.595 18.5316L21.8265 18.4356L23.1765 18.3441L24.6195 18.2586L26.1255 18.1866C27.4163 18.1306 28.708 18.1016 30 18.0996ZM27 26.4621V33.7371C27 34.4301 27.75 34.8621 28.35 34.5171L34.65 30.8796C34.7871 30.8007 34.901 30.687 34.9801 30.5501C35.0593 30.4132 35.101 30.2578 35.101 30.0996C35.101 29.9414 35.0593 29.786 34.9801 29.6491C34.901 29.5122 34.7871 29.3985 34.65 29.3196L28.35 25.6836C28.2131 25.6046 28.0579 25.563 27.8999 25.563C27.7418 25.5631 27.5866 25.6047 27.4497 25.6838C27.3129 25.7628 27.1993 25.8765 27.1204 26.0134C27.0414 26.1503 26.9999 26.3056 27 26.4636V26.4621Z" fill="#d97213"/>
</g>
</g>
</g>
<defs>
<filter id="filter0_d_333_3371" x="0" y="0" width="68" height="68" filterUnits="userSpaceOnUse" color-interpolation-filters="sRGB">
<feFlood flood-opacity="0" result="BackgroundImageFix"/>
<feColorMatrix in="SourceAlpha" type="matrix" values="0 0 0 0 0 0 0 0 0 0 0 0 0 0 0 0 0 0 127 0" result="hardAlpha"/>
<feOffset dx="4" dy="4"/>
<feGaussianBlur stdDeviation="5"/>
<feComposite in2="hardAlpha" operator="out"/>
<feColorMatrix type="matrix" values="0 0 0 0 0 0 0 0 0 0 0 0 0 0 0 0 0 0 0.1 0"/>
<feBlend mode="normal" in2="BackgroundImageFix" result="effect1_dropShadow_333_3371"/>
<feBlend mode="normal" in="SourceGraphic" in2="effect1_dropShadow_333_3371" result="shape"/>
</filter>
<clipPath id="clip0_333_3371">
<rect x="6" y="6" width="48" height="48" rx="3" fill="white"/>
</clipPath>
</defs>
</svg>
